<?xml version="1.0" encoding="UTF-8" standalone="no"?>
<svg
   xmlns:dc="http://purl.org/dc/elements/1.1/"
   xmlns:cc="http://creativecommons.org/ns#"
   xmlns:rdf="http://www.w3.org/1999/02/22-rdf-syntax-ns#"
   xmlns:svg="http://www.w3.org/2000/svg"
   xmlns="http://www.w3.org/2000/svg"
   viewBox="0 0 907.93469 457.46133"
   height="457.46133"
   width="907.93469"
   xml:space="preserve"
   id="svg2"
   version="1.1"><metadata
     id="metadata8"><rdf:RDF><cc:Work
         rdf:about=""><dc:format>image/svg+xml</dc:format><dc:type
           rdf:resource="http://purl.org/dc/dcmitype/StillImage" /></cc:Work></rdf:RDF></metadata><defs
     id="defs6"><clipPath
       id="clipPath24"
       clipPathUnits="userSpaceOnUse"><path
         id="path22"
         d="M 0,343.096 H 680.951 V 0 H 0 Z" /></clipPath></defs><g
     transform="matrix(1.3333333,0,0,-1.3333333,0,457.46133)"
     id="g10"><text
       id="text16"
       style="font-variant:normal;font-weight:normal;font-stretch:normal;font-size:45px;font-family:'Myriad Pro';-inkscape-font-specification:MyriadPro-Regular;writing-mode:lr-tb;fill:#000000;fill-opacity:1;fill-rule:nonzero;stroke:none"
       transform="matrix(1,0,0,-1,50.0527,264.9443)"><tspan
         id="tspan12"
         y="0"
         x="0 48.240002 102.78 154.17 212.175 263.38501 317.92499 367.29001 425.29501 463.04999 514.26001 563.40002">LABORATOIRES</tspan><tspan
         id="tspan14"
         y="54"
         x="-38.115002 5.1750002 49.68 113.04 176.75999 239.625 295.56 351.67499 409.63501 454.14001 510.03 565.02002"> INDUSTRIELS</tspan></text>
<g
       id="g18"><g
         clip-path="url(#clipPath24)"
         id="g20"><g
           transform="translate(4.9766,57.9502)"
           id="g26"><path
             id="path28"
             style="fill:none;stroke:#020000;stroke-width:10;stroke-linecap:butt;stroke-linejoin:miter;stroke-miterlimit:4;stroke-dasharray:none;stroke-opacity:1"
             d="M 0,0 H 670.998" /></g><g
           transform="translate(421.623,27.6484)"
           id="g30"><path
             id="path32"
             style="fill:#ff0000;fill-opacity:1;fill-rule:nonzero;stroke:none"
             d="m 0,0 c 35.334,4.227 52.986,37.023 66,37.333 6.666,0.161 6,-7.666 7,-7.666 1,0 8.346,6.596 11.668,7.666 3.648,1.176 16.477,3.661 15.332,0 C 95.037,21.467 62.621,-7.396 44.334,-9.666 41.398,-10.029 42.334,2 42.334,2 42.334,2 13.457,-19.525 4,-15 0.5,-13.324 -3.854,-0.461 0,0" /></g><g
           transform="translate(421.623,27.6484)"
           id="g34"><path
             id="path36"
             style="fill:none;stroke:#ff0000;stroke-width:1;stroke-linecap:butt;stroke-linejoin:miter;stroke-miterlimit:4;stroke-dasharray:none;stroke-opacity:1"
             d="m 0,0 c 35.334,4.227 52.986,37.023 66,37.333 6.666,0.161 6,-7.666 7,-7.666 1,0 8.346,6.596 11.668,7.666 3.648,1.176 16.477,3.661 15.332,0 C 95.037,21.467 62.621,-7.396 44.334,-9.666 41.398,-10.029 42.334,2 42.334,2 42.334,2 13.457,-19.525 4,-15 0.5,-13.324 -3.854,-0.461 0,0 Z" /></g><g
           transform="translate(516.1719,25.1953)"
           id="g38"><path
             id="path40"
             style="fill:#00ae00;fill-opacity:1;fill-rule:nonzero;stroke:none"
             d="m 0,0 c 0,0 -8.52,-0.814 -8.52,8.08 0,0 31.5,39 46.75,42 4.641,0.912 13.5,-13.25 13.5,-13.25 0,0 8.192,12.658 12.75,13.25 3.708,0.48 10.424,-6.34 14,-5.25 9.555,2.908 21.711,28.328 32.377,24.994 6.301,-1.969 -6.334,-18 1.334,-24 4.922,-3.852 13.914,14.006 22.039,14.006 8.125,0 15.215,-11.473 11.25,-13.25 -17.289,-7.756 -52,-46.838 -55.75,-47.25 -3.601,-0.396 -4.75,10.25 -10.25,10.25 -5.5,0 -29.834,-21.09 -35.834,-15.09 -6,6 -1.416,12.84 -4.416,12.84 -3,0 -20.441,-15.896 -28.707,-13.914 -6.25,1.5 4.207,18.164 4.207,18.164 z" /></g><g
           transform="translate(289.4111,112.3276)"
           id="g42"><path
             id="path44"
             style="fill:#000000;fill-opacity:1;fill-rule:nonzero;stroke:none"
             d="m 0,0 c -4.716,-10.25 -41.567,-20.667 -44.383,10 -0.064,0.688 -0.109,2.446 -0.26,4.572 0.151,2.125 0.196,3.883 0.26,4.571 2.816,30.667 39.667,20.25 44.383,10 0,38.25 0.199,-1.652 0,38.25 -80.333,14.934 -84.383,-48.25 -84.383,-48.25 0,0 -0.155,-2.054 -0.018,-4.571 -0.137,-2.519 0.018,-4.572 0.018,-4.572 0,0 4.05,-63.184 84.383,-48.25 0.199,39.902 0,0 0,38.25" /></g><path
           id="path46"
           style="fill:#000000;fill-opacity:1;fill-rule:nonzero;stroke:none"
           d="M 159.148,74 H 192.4 v 107.373 h -33.252 z" /><g
           transform="translate(105.1006,138.2261)"
           id="g48"><path
             id="path50"
             style="fill:#000000;fill-opacity:1;fill-rule:nonzero;stroke:none"
             d="m 0,0 c -2.043,-1.754 -5.588,-2.63 -10.635,-2.63 h -6.415 v 18.9 h 7.455 c 4.893,0 8.226,-0.925 9.999,-2.774 C 2.176,11.646 3.063,9.392 3.063,6.733 3.063,3.997 2.042,1.752 0,0 m 38.345,7.245 c 0,0 2.427,39.882 -53.5,37.615 v 0.097 h -35.22 V 43.146 26.245 -64.226 h 33.325 l -0.08,32.346 C 45.345,-39.005 38.345,7.245 38.345,7.245" /></g><path
           id="path52"
           style="fill:#000000;fill-opacity:1;fill-rule:nonzero;stroke:none"
           d="m 306.375,76.719 h 38.82 v 39.258 h -38.82 z" /><path
           id="path54"
           style="fill:#000000;fill-opacity:1;fill-rule:nonzero;stroke:none"
           d="m 369.445,76.719 h 39.689 v 39.258 h -39.689 z" /><g
           transform="translate(345.1953,183.8418)"
           id="g56"><path
             id="path58"
             style="fill:#000000;fill-opacity:1;fill-rule:nonzero;stroke:none"
             d="M 0,0 -38.82,0.25 V -35.008 H 0 Z" /></g><g
           transform="translate(369.4453,184.0918)"
           id="g60"><path
             id="path62"
             style="fill:#000000;fill-opacity:1;fill-rule:nonzero;stroke:none"
             d="M 0,0 V -35.258 H 3.932 39.689 V 0 Z" /></g><g
           transform="translate(306.3755,130.9292)"
           id="g64"><path
             id="path66"
             style="fill:#000000;fill-opacity:1;fill-rule:nonzero;stroke:none"
             d="M 0,0 H 102.759 V 2.952 H 0 v 6 h 102.759 v 2.953 H 0 Z" /></g><path
           id="path68"
           style="fill:#000000;fill-opacity:1;fill-rule:nonzero;stroke:none"
           d="m 306.375,121.977 h 102.759 v 2.953 H 306.375 Z" /><g
           transform="translate(418.9033,142.834)"
           id="g70"><path
             id="path72"
             style="fill:#000000;fill-opacity:1;fill-rule:nonzero;stroke:none"
             d="m 0,0 c -0.233,-0.975 -0.441,-1.959 -0.62,-2.953 h 39.364 c 0.548,1.035 1.185,2.021 1.898,2.953 z" /></g><g
           transform="translate(455.2939,130.9292)"
           id="g74"><path
             id="path76"
             style="fill:#000000;fill-opacity:1;fill-rule:nonzero;stroke:none"
             d="M 0,0 C 0.025,1.002 0.122,1.988 0.291,2.952 H -37.747 C -37.81,1.975 -37.848,0.991 -37.856,0 Z" /></g><g
           transform="translate(457.1279,121.9766)"
           id="g78"><path
             id="path80"
             style="fill:#000000;fill-opacity:1;fill-rule:nonzero;stroke:none"
             d="M 0,0 C -0.437,0.951 -0.802,1.937 -1.089,2.953 H -39.418 C -39.316,1.961 -39.189,0.976 -39.034,0 Z" /></g><g
           transform="translate(466.5439,148.834)"
           id="g82"><path
             id="path84"
             style="fill:#000000;fill-opacity:1;fill-rule:nonzero;stroke:none"
             d="M 0,0 C 3.419,1.891 7.406,2.979 11.668,2.979 15.93,2.979 19.917,1.891 23.336,0 H 69.161 C 60.963,22.292 38.328,38.321 11.668,38.321 -14.992,38.321 -37.627,22.292 -45.825,0 Z" /></g><g
           transform="translate(495.1514,115.9766)"
           id="g86"><path
             id="path88"
             style="fill:#000000;fill-opacity:1;fill-rule:nonzero;stroke:none"
             d="m 0,0 c -4.193,-4.289 -10.229,-6.98 -16.939,-6.98 -6.71,0 -12.748,2.691 -16.941,6.98 h -41.86 c 6.839,-24.354 30.569,-42.321 58.801,-42.321 28.231,0 51.961,17.967 58.8,42.321 z" /></g><g
           transform="translate(496.8779,142.834)"
           id="g90"><path
             id="path92"
             style="fill:#000000;fill-opacity:1;fill-rule:nonzero;stroke:none"
             d="M 0,0 C 0.713,-0.932 1.35,-1.918 1.897,-2.953 H 41.263 C 41.084,-1.959 40.876,-0.975 40.643,0 Z" /></g><g
           transform="translate(538.7139,124.9292)"
           id="g94"><path
             id="path96"
             style="fill:#000000;fill-opacity:1;fill-rule:nonzero;stroke:none"
             d="m 0,0 h -38.33 c -0.287,-1.016 -0.652,-2.002 -1.089,-2.953 H -0.384 C -0.229,-1.977 -0.102,-0.992 0,0" /></g><g
           transform="translate(500.8379,133.8813)"
           id="g98"><path
             id="path100"
             style="fill:#000000;fill-opacity:1;fill-rule:nonzero;stroke:none"
             d="M 0,0 C 0.169,-0.964 0.266,-1.95 0.291,-2.952 H 38.148 C 38.14,-1.961 38.102,-0.978 38.039,0 Z" /></g><path
           id="path102"
           style="fill:#000000;fill-opacity:1;fill-rule:nonzero;stroke:none"
           d="m 570.697,130.929 h 35.758 v 2.952 h -35.758 z" /><path
           id="path104"
           style="fill:#000000;fill-opacity:1;fill-rule:nonzero;stroke:none"
           d="m 606.455,124.929 h -35.759 v -2.953 h 35.759 z" /><g
           transform="translate(614.1963,148.834)"
           id="g106"><path
             id="path108"
             style="fill:#000000;fill-opacity:1;fill-rule:nonzero;stroke:none"
             d="m 0,0 h 16.749 v 35.703 h -83.75 V 0 h 23.502 z" /></g><g
           transform="translate(570.6963,115.9766)"
           id="g110"><path
             id="path112"
             style="fill:#000000;fill-opacity:1;fill-rule:nonzero;stroke:none"
             d="m 0,0 -0.001,-49.922 35.759,0.5 L 35.759,0 Z" /></g><path
           id="path114"
           style="fill:#000000;fill-opacity:1;fill-rule:nonzero;stroke:none"
           d="m 570.697,139.881 h 35.758 v 2.953 h -35.758 z" /></g></g></g></svg>